<svg xmlns="http://www.w3.org/2000/svg" viewBox="0 0 24 24" id="reddit"><path d="M12 21.002c-5.514 0-10-2.916-10-6.5s4.486-6.5 10-6.5 10 2.916 10 6.5-4.486 6.5-10 6.5zm0-12c-4.963 0-9 2.467-9 5.5s4.037 5.5 9 5.5 9-2.467 9-5.5-4.037-5.5-9-5.5z"></path><path d="M12 19.002c-1.498 0-3.033-.34-4.694-1.039a.5.5 0 0 1 .388-.922c3.07 1.293 5.541 1.293 8.611 0 .256-.105.548.013.655.267s-.013.547-.267.655c-1.66.7-3.195 1.039-4.693 1.039zM8.5 15.002c-.827 0-1.5-.673-1.5-1.5s.673-1.5 1.5-1.5 1.5.673 1.5 1.5-.673 1.5-1.5 1.5zm0-2a.5.5 0 1 0 .002 1.002.5.5 0 0 0-.002-1.002zM15.5 15.002c-.827 0-1.5-.673-1.5-1.5s.673-1.5 1.5-1.5 1.5.673 1.5 1.5-.673 1.5-1.5 1.5zm0-2a.5.5 0 1 0 .002 1.002.5.5 0 0 0-.002-1.002zM19.5 8.002c-1.379 0-2.5-1.122-2.5-2.5s1.121-2.5 2.5-2.5 2.5 1.122 2.5 2.5-1.121 2.5-2.5 2.5zm0-4c-.827 0-1.5.673-1.5 1.5s.673 1.5 1.5 1.5a1.501 1.501 0 0 0 0-3zM21.346 13.953a.499.499 0 0 1-.481-.365c-.312-1.112-1.168-2.129-2.475-2.94a.499.499 0 0 1-.063-.802c.618-.535 1.501-.842 2.424-.842 1.792 0 3.25 1.122 3.25 2.5 0 1.194-1.059 2.199-2.574 2.444a.781.781 0 0 1-.081.005zm-1.782-3.714c1.009.755 1.727 1.647 2.11 2.625.789-.242 1.326-.776 1.326-1.362 0-.813-1.03-1.5-2.25-1.5-.424 0-.832.084-1.186.237zM2.654 13.953a.549.549 0 0 1-.08-.006C1.059 13.702 0 12.697 0 11.502c0-1.378 1.458-2.5 3.25-2.5.923 0 1.806.307 2.424.842a.499.499 0 0 1-.063.802c-1.307.811-2.163 1.828-2.475 2.94a.502.502 0 0 1-.482.367zm.596-3.951c-1.22 0-2.25.687-2.25 1.5 0 .585.537 1.12 1.325 1.362.384-.978 1.102-1.87 2.11-2.625a2.998 2.998 0 0 0-1.185-.237z"></path><path d="M12 9.002a.5.5 0 0 1-.5-.5c0-1.502.16-3.01 1.319-3.865 1.032-.763 2.612-.799 4.828-.113a.499.499 0 1 1-.295.955c-1.866-.577-3.19-.59-3.94-.038-.802.593-.912 1.822-.912 3.061a.5.5 0 0 1-.5.5z"></path></svg>